<svg xmlns="http://www.w3.org/2000/svg" xmlns:xlink="http://www.w3.org/1999/xlink" width="500" zoomAndPan="magnify" viewBox="0 0 375 374.999991" height="500" preserveAspectRatio="xMidYMid meet" version="1.0"><defs><g/><clipPath id="06416737e7"><path d="M 6.222656 125.105469 L 368.472656 125.105469 L 368.472656 218.105469 L 6.222656 218.105469 Z M 6.222656 125.105469 " clip-rule="nonzero"/></clipPath></defs><g clip-path="url(#06416737e7)"><path fill="#16cbb5" d="M 6.222656 125.105469 L 368.472656 125.105469 L 368.472656 218.105469 L 6.222656 218.105469 Z M 6.222656 125.105469 " fill-opacity="1" fill-rule="nonzero"/></g><g fill="#000000" fill-opacity="1"><g transform="translate(92.694764, 165.891025)"><g><path d="M 66.390625 -56.25 C 68.785156 -56.25 70.78125 -56.332031 72.375 -56.5 L 72.375 -54.90625 C 69.394531 -54.207031 67.296875 -51.890625 66.078125 -47.953125 L 50.984375 0.40625 L 49.71875 0.40625 L 35.828125 -40.703125 L 23.140625 0.40625 L 21.859375 0.40625 L 4.953125 -49.796875 C 3.828125 -53.085938 1.988281 -54.789062 -0.5625 -54.90625 L -0.5625 -56.5 C 1.625 -56.332031 4.472656 -56.25 7.984375 -56.25 C 11.804688 -56.25 14.675781 -56.332031 16.59375 -56.5 L 16.59375 -54.90625 C 15.15625 -54.789062 14.144531 -54.519531 13.5625 -54.09375 C 12.976562 -53.675781 12.6875 -53.015625 12.6875 -52.109375 C 12.6875 -51.253906 12.976562 -49.953125 13.5625 -48.203125 L 25.21875 -12.609375 L 34.953125 -43.484375 L 32.796875 -49.796875 C 31.734375 -53.085938 30.164062 -54.789062 28.09375 -54.90625 L 28.09375 -56.5 C 30.007812 -56.332031 32.585938 -56.25 35.828125 -56.25 C 40.398438 -56.25 43.804688 -56.332031 46.046875 -56.5 L 46.046875 -54.90625 C 44.023438 -54.789062 42.613281 -54.5625 41.8125 -54.21875 C 41.007812 -53.875 40.609375 -53.144531 40.609375 -52.03125 C 40.609375 -51.070312 40.878906 -49.796875 41.421875 -48.203125 L 52.90625 -12.6875 L 62.71875 -43.5625 C 63.570312 -46.175781 64 -48.332031 64 -50.03125 C 64 -51.789062 63.46875 -53.03125 62.40625 -53.75 C 61.34375 -54.46875 59.613281 -54.851562 57.21875 -54.90625 L 57.21875 -56.5 C 60.25 -56.332031 63.304688 -56.25 66.390625 -56.25 Z M 66.390625 -56.25 "/></g></g></g><g fill="#000000" fill-opacity="1"><g transform="translate(164.90746, 165.891025)"><g><path d="M 11.40625 -61.046875 C 12.789062 -61.046875 13.988281 -60.539062 15 -59.53125 C 16.007812 -58.519531 16.515625 -57.320312 16.515625 -55.9375 C 16.515625 -54.550781 16.007812 -53.351562 15 -52.34375 C 13.988281 -51.332031 12.789062 -50.828125 11.40625 -50.828125 C 10.03125 -50.828125 8.835938 -51.332031 7.828125 -52.34375 C 6.816406 -53.351562 6.3125 -54.550781 6.3125 -55.9375 C 6.3125 -57.320312 6.816406 -58.519531 7.828125 -59.53125 C 8.835938 -60.539062 10.03125 -61.046875 11.40625 -61.046875 Z M 15.5625 -7.421875 C 15.5625 -5.242188 16.015625 -3.738281 16.921875 -2.90625 C 17.828125 -2.082031 19.394531 -1.671875 21.625 -1.671875 L 21.625 0 C 16.726562 -0.207031 13.507812 -0.3125 11.96875 -0.3125 C 10.425781 -0.3125 7.207031 -0.207031 2.3125 0 L 2.3125 -1.671875 C 4.550781 -1.671875 6.117188 -2.082031 7.015625 -2.90625 C 7.921875 -3.738281 8.375 -5.242188 8.375 -7.421875 L 8.375 -32.390625 C 8.375 -34.835938 7.921875 -36.617188 7.015625 -37.734375 C 6.117188 -38.859375 4.550781 -39.421875 2.3125 -39.421875 L 2.3125 -41.09375 C 4.019531 -40.9375 5.671875 -40.859375 7.265625 -40.859375 C 10.609375 -40.859375 13.375 -41.226562 15.5625 -41.96875 Z M 15.5625 -7.421875 "/></g></g></g><g fill="#000000" fill-opacity="1"><g transform="translate(188.286822, 165.891025)"><g><path d="M 29.125 -42.21875 C 32.851562 -42.21875 35.671875 -41.207031 37.578125 -39.1875 C 38.585938 -38.113281 39.304688 -36.78125 39.734375 -35.1875 C 40.160156 -33.59375 40.375 -31.441406 40.375 -28.734375 L 40.375 -7.421875 C 40.375 -5.242188 40.828125 -3.738281 41.734375 -2.90625 C 42.640625 -2.082031 44.207031 -1.671875 46.4375 -1.671875 L 46.4375 0 C 41.539062 -0.207031 38.347656 -0.3125 36.859375 -0.3125 C 35.367188 -0.3125 32.390625 -0.207031 27.921875 0 L 27.921875 -1.671875 C 29.890625 -1.671875 31.257812 -2.082031 32.03125 -2.90625 C 32.8125 -3.738281 33.203125 -5.242188 33.203125 -7.421875 L 33.203125 -30.484375 C 33.203125 -33.460938 32.773438 -35.734375 31.921875 -37.296875 C 31.066406 -38.867188 29.335938 -39.65625 26.734375 -39.65625 C 24.546875 -39.65625 22.601562 -39.015625 20.90625 -37.734375 C 19.207031 -36.460938 17.890625 -34.722656 16.953125 -32.515625 C 16.023438 -30.304688 15.5625 -27.847656 15.5625 -25.140625 L 15.5625 -7.421875 C 15.5625 -5.242188 15.945312 -3.738281 16.71875 -2.90625 C 17.488281 -2.082031 18.859375 -1.671875 20.828125 -1.671875 L 20.828125 0 C 16.359375 -0.207031 13.378906 -0.3125 11.890625 -0.3125 C 10.398438 -0.3125 7.207031 -0.207031 2.3125 0 L 2.3125 -1.671875 C 4.550781 -1.671875 6.117188 -2.082031 7.015625 -2.90625 C 7.921875 -3.738281 8.375 -5.242188 8.375 -7.421875 L 8.375 -32.390625 C 8.375 -34.835938 7.921875 -36.617188 7.015625 -37.734375 C 6.117188 -38.859375 4.550781 -39.421875 2.3125 -39.421875 L 2.3125 -41.09375 C 4.019531 -40.9375 5.671875 -40.859375 7.265625 -40.859375 C 10.609375 -40.859375 13.375 -41.226562 15.5625 -41.96875 L 15.5625 -32.5625 C 16.894531 -35.96875 18.742188 -38.425781 21.109375 -39.9375 C 23.472656 -41.457031 26.144531 -42.21875 29.125 -42.21875 Z M 29.125 -42.21875 "/></g></g></g><g fill="#000000" fill-opacity="1"><g transform="translate(235.923263, 165.891025)"><g><path d="M 38.625 -8.703125 C 38.625 -6.253906 39.070312 -4.46875 39.96875 -3.34375 C 40.875 -2.226562 42.445312 -1.671875 44.6875 -1.671875 L 44.6875 0 C 43.039062 -0.15625 41.390625 -0.234375 39.734375 -0.234375 C 36.390625 -0.234375 33.625 0.132812 31.4375 0.875 L 31.4375 -6.21875 C 30.476562 -3.832031 29.039062 -2.015625 27.125 -0.765625 C 25.21875 0.484375 22.878906 1.109375 20.109375 1.109375 C 15.003906 1.109375 11 -0.722656 8.09375 -4.390625 C 5.195312 -8.054688 3.773438 -13.425781 3.828125 -20.5 C 3.828125 -25.132812 4.640625 -29.085938 6.265625 -32.359375 C 7.890625 -35.628906 10.070312 -38.085938 12.8125 -39.734375 C 15.550781 -41.390625 18.566406 -42.21875 21.859375 -42.21875 C 23.878906 -42.21875 25.726562 -41.828125 27.40625 -41.046875 C 29.082031 -40.273438 30.425781 -39.09375 31.4375 -37.5 L 31.4375 -52.984375 C 31.4375 -55.429688 30.984375 -57.210938 30.078125 -58.328125 C 29.179688 -59.441406 27.613281 -60 25.375 -60 L 25.375 -61.6875 C 27.070312 -61.519531 28.722656 -61.4375 30.328125 -61.4375 C 33.671875 -61.4375 36.4375 -61.8125 38.625 -62.5625 Z M 22.421875 -1.28125 C 24.492188 -1.28125 26.351562 -2.078125 28 -3.671875 C 29.65625 -5.265625 30.800781 -7.523438 31.4375 -10.453125 L 31.4375 -34.234375 C 30 -38.328125 27.019531 -40.375 22.5 -40.375 C 19.207031 -40.375 16.546875 -38.6875 14.515625 -35.3125 C 12.492188 -31.9375 11.515625 -27 11.578125 -20.5 C 11.515625 -14.125 12.414062 -9.328125 14.28125 -6.109375 C 16.144531 -2.890625 18.859375 -1.28125 22.421875 -1.28125 Z M 22.421875 -1.28125 "/></g></g></g><g fill="#000000" fill-opacity="1"><g transform="translate(56.835392, 234.141021)"><g><path d="M 44.203125 -10.21875 C 44.203125 -7.1875 44.390625 -3.78125 44.765625 0 C 41.148438 -0.15625 35.0625 -0.234375 26.5 -0.234375 C 16.28125 -0.234375 8.5625 -0.15625 3.34375 0 L 3.34375 -1.59375 C 5.257812 -1.695312 6.65625 -1.910156 7.53125 -2.234375 C 8.414062 -2.554688 9.015625 -3.164062 9.328125 -4.0625 C 9.648438 -4.96875 9.8125 -6.429688 9.8125 -8.453125 L 9.8125 -48.03125 C 9.8125 -50.050781 9.648438 -51.515625 9.328125 -52.421875 C 9.015625 -53.328125 8.414062 -53.9375 7.53125 -54.25 C 6.65625 -54.570312 5.257812 -54.789062 3.34375 -54.90625 L 3.34375 -56.5 C 8.5625 -56.332031 16.28125 -56.25 26.5 -56.25 C 34.3125 -56.25 39.867188 -56.332031 43.171875 -56.5 C 42.796875 -52.988281 42.609375 -49.847656 42.609375 -47.078125 C 42.609375 -45.003906 42.6875 -43.351562 42.84375 -42.125 L 41.015625 -42.125 C 40.640625 -45.582031 40.160156 -48.148438 39.578125 -49.828125 C 38.992188 -51.503906 38.007812 -52.726562 36.625 -53.5 C 35.238281 -54.269531 33.140625 -54.65625 30.328125 -54.65625 L 23.703125 -54.65625 C 21.785156 -54.65625 20.382812 -54.507812 19.5 -54.21875 C 18.625 -53.925781 18.023438 -53.328125 17.703125 -52.421875 C 17.390625 -51.515625 17.234375 -50.050781 17.234375 -48.03125 L 17.234375 -29.203125 L 22.5 -29.203125 C 24.363281 -29.203125 25.800781 -29.640625 26.8125 -30.515625 C 27.820312 -31.398438 28.5 -32.441406 28.84375 -33.640625 C 29.1875 -34.835938 29.46875 -36.335938 29.6875 -38.140625 L 29.921875 -39.734375 L 31.765625 -39.734375 C 31.597656 -37.503906 31.515625 -35.003906 31.515625 -32.234375 L 31.515625 -28.40625 C 31.515625 -25.695312 31.675781 -21.921875 32 -17.078125 L 30.15625 -17.078125 C 30.101562 -17.453125 29.941406 -18.742188 29.671875 -20.953125 C 29.410156 -23.160156 28.679688 -24.820312 27.484375 -25.9375 C 26.285156 -27.050781 24.625 -27.609375 22.5 -27.609375 L 17.234375 -27.609375 L 17.234375 -8.453125 C 17.234375 -6.429688 17.390625 -4.96875 17.703125 -4.0625 C 18.023438 -3.164062 18.625 -2.566406 19.5 -2.265625 C 20.382812 -1.972656 21.785156 -1.828125 23.703125 -1.828125 L 29.53125 -1.828125 C 32.820312 -1.828125 35.332031 -2.265625 37.0625 -3.140625 C 38.789062 -4.023438 40.050781 -5.4375 40.84375 -7.375 C 41.644531 -9.320312 42.234375 -12.179688 42.609375 -15.953125 L 44.453125 -15.953125 C 44.285156 -14.523438 44.203125 -12.613281 44.203125 -10.21875 Z M 44.203125 -10.21875 "/></g></g></g><g fill="#000000" fill-opacity="1"><g transform="translate(105.429348, 234.141021)"><g><path d="M 38.625 -8.703125 C 38.625 -6.253906 39.070312 -4.46875 39.96875 -3.34375 C 40.875 -2.226562 42.445312 -1.671875 44.6875 -1.671875 L 44.6875 0 C 43.039062 -0.15625 41.390625 -0.234375 39.734375 -0.234375 C 36.390625 -0.234375 33.625 0.132812 31.4375 0.875 L 31.4375 -6.21875 C 30.476562 -3.832031 29.039062 -2.015625 27.125 -0.765625 C 25.21875 0.484375 22.878906 1.109375 20.109375 1.109375 C 15.003906 1.109375 11 -0.722656 8.09375 -4.390625 C 5.195312 -8.054688 3.773438 -13.425781 3.828125 -20.5 C 3.828125 -25.132812 4.640625 -29.085938 6.265625 -32.359375 C 7.890625 -35.628906 10.070312 -38.085938 12.8125 -39.734375 C 15.550781 -41.390625 18.566406 -42.21875 21.859375 -42.21875 C 23.878906 -42.21875 25.726562 -41.828125 27.40625 -41.046875 C 29.082031 -40.273438 30.425781 -39.09375 31.4375 -37.5 L 31.4375 -52.984375 C 31.4375 -55.429688 30.984375 -57.210938 30.078125 -58.328125 C 29.179688 -59.441406 27.613281 -60 25.375 -60 L 25.375 -61.6875 C 27.070312 -61.519531 28.722656 -61.4375 30.328125 -61.4375 C 33.671875 -61.4375 36.4375 -61.8125 38.625 -62.5625 Z M 22.421875 -1.28125 C 24.492188 -1.28125 26.351562 -2.078125 28 -3.671875 C 29.65625 -5.265625 30.800781 -7.523438 31.4375 -10.453125 L 31.4375 -34.234375 C 30 -38.328125 27.019531 -40.375 22.5 -40.375 C 19.207031 -40.375 16.546875 -38.6875 14.515625 -35.3125 C 12.492188 -31.9375 11.515625 -27 11.578125 -20.5 C 11.515625 -14.125 12.414062 -9.328125 14.28125 -6.109375 C 16.144531 -2.890625 18.859375 -1.28125 22.421875 -1.28125 Z M 22.421875 -1.28125 "/></g></g></g><g fill="#000000" fill-opacity="1"><g transform="translate(151.789098, 234.141021)"><g><path d="M 11.40625 -61.046875 C 12.789062 -61.046875 13.988281 -60.539062 15 -59.53125 C 16.007812 -58.519531 16.515625 -57.320312 16.515625 -55.9375 C 16.515625 -54.550781 16.007812 -53.351562 15 -52.34375 C 13.988281 -51.332031 12.789062 -50.828125 11.40625 -50.828125 C 10.03125 -50.828125 8.835938 -51.332031 7.828125 -52.34375 C 6.816406 -53.351562 6.3125 -54.550781 6.3125 -55.9375 C 6.3125 -57.320312 6.816406 -58.519531 7.828125 -59.53125 C 8.835938 -60.539062 10.03125 -61.046875 11.40625 -61.046875 Z M 15.5625 -7.421875 C 15.5625 -5.242188 16.015625 -3.738281 16.921875 -2.90625 C 17.828125 -2.082031 19.394531 -1.671875 21.625 -1.671875 L 21.625 0 C 16.726562 -0.207031 13.507812 -0.3125 11.96875 -0.3125 C 10.425781 -0.3125 7.207031 -0.207031 2.3125 0 L 2.3125 -1.671875 C 4.550781 -1.671875 6.117188 -2.082031 7.015625 -2.90625 C 7.921875 -3.738281 8.375 -5.242188 8.375 -7.421875 L 8.375 -32.390625 C 8.375 -34.835938 7.921875 -36.617188 7.015625 -37.734375 C 6.117188 -38.859375 4.550781 -39.421875 2.3125 -39.421875 L 2.3125 -41.09375 C 4.019531 -40.9375 5.671875 -40.859375 7.265625 -40.859375 C 10.609375 -40.859375 13.375 -41.226562 15.5625 -41.96875 Z M 15.5625 -7.421875 "/></g></g></g><g fill="#000000" fill-opacity="1"><g transform="translate(175.16846, 234.141021)"><g><path d="M 15.15625 -41.015625 L 26.96875 -41.015625 L 26.96875 -39.421875 L 15.15625 -39.421875 L 15.15625 -8.53125 C 15.15625 -6.144531 15.59375 -4.414062 16.46875 -3.34375 C 17.351562 -2.28125 18.617188 -1.75 20.265625 -1.75 C 21.910156 -1.75 23.316406 -2.414062 24.484375 -3.75 C 25.660156 -5.082031 26.648438 -7.265625 27.453125 -10.296875 L 29.046875 -9.890625 C 27.710938 -2.554688 24.253906 1.109375 18.671875 1.109375 C 16.859375 1.109375 15.367188 0.894531 14.203125 0.46875 C 13.035156 0.0507812 12 -0.609375 11.09375 -1.515625 C 9.925781 -2.679688 9.113281 -4.113281 8.65625 -5.8125 C 8.207031 -7.519531 7.984375 -9.8125 7.984375 -12.6875 L 7.984375 -39.421875 L 0.3125 -39.421875 L 0.3125 -41.015625 L 7.984375 -41.015625 L 7.984375 -53.21875 C 10.960938 -53.332031 13.351562 -53.707031 15.15625 -54.34375 Z M 15.15625 -41.015625 "/></g></g></g><g fill="#000000" fill-opacity="1"><g transform="translate(203.415189, 234.141021)"><g><path d="M 11.40625 -61.046875 C 12.789062 -61.046875 13.988281 -60.539062 15 -59.53125 C 16.007812 -58.519531 16.515625 -57.320312 16.515625 -55.9375 C 16.515625 -54.550781 16.007812 -53.351562 15 -52.34375 C 13.988281 -51.332031 12.789062 -50.828125 11.40625 -50.828125 C 10.03125 -50.828125 8.835938 -51.332031 7.828125 -52.34375 C 6.816406 -53.351562 6.3125 -54.550781 6.3125 -55.9375 C 6.3125 -57.320312 6.816406 -58.519531 7.828125 -59.53125 C 8.835938 -60.539062 10.03125 -61.046875 11.40625 -61.046875 Z M 15.5625 -7.421875 C 15.5625 -5.242188 16.015625 -3.738281 16.921875 -2.90625 C 17.828125 -2.082031 19.394531 -1.671875 21.625 -1.671875 L 21.625 0 C 16.726562 -0.207031 13.507812 -0.3125 11.96875 -0.3125 C 10.425781 -0.3125 7.207031 -0.207031 2.3125 0 L 2.3125 -1.671875 C 4.550781 -1.671875 6.117188 -2.082031 7.015625 -2.90625 C 7.921875 -3.738281 8.375 -5.242188 8.375 -7.421875 L 8.375 -32.390625 C 8.375 -34.835938 7.921875 -36.617188 7.015625 -37.734375 C 6.117188 -38.859375 4.550781 -39.421875 2.3125 -39.421875 L 2.3125 -41.09375 C 4.019531 -40.9375 5.671875 -40.859375 7.265625 -40.859375 C 10.609375 -40.859375 13.375 -41.226562 15.5625 -41.96875 Z M 15.5625 -7.421875 "/></g></g></g><g fill="#000000" fill-opacity="1"><g transform="translate(226.794552, 234.141021)"><g><path d="M 21.859375 -42.21875 C 27.285156 -42.21875 31.660156 -40.421875 34.984375 -36.828125 C 38.316406 -33.234375 39.984375 -27.789062 39.984375 -20.5 C 39.984375 -13.21875 38.316406 -7.796875 34.984375 -4.234375 C 31.660156 -0.671875 27.285156 1.109375 21.859375 1.109375 C 16.429688 1.109375 12.054688 -0.671875 8.734375 -4.234375 C 5.410156 -7.796875 3.75 -13.21875 3.75 -20.5 C 3.75 -27.789062 5.410156 -33.234375 8.734375 -36.828125 C 12.054688 -40.421875 16.429688 -42.21875 21.859375 -42.21875 Z M 21.859375 -40.609375 C 18.671875 -40.609375 16.144531 -38.972656 14.28125 -35.703125 C 12.414062 -32.429688 11.484375 -27.363281 11.484375 -20.5 C 11.484375 -13.644531 12.414062 -8.59375 14.28125 -5.34375 C 16.144531 -2.101562 18.671875 -0.484375 21.859375 -0.484375 C 25.054688 -0.484375 27.582031 -2.101562 29.4375 -5.34375 C 31.300781 -8.59375 32.234375 -13.644531 32.234375 -20.5 C 32.234375 -27.363281 31.300781 -32.429688 29.4375 -35.703125 C 27.582031 -38.972656 25.054688 -40.609375 21.859375 -40.609375 Z M 21.859375 -40.609375 "/></g></g></g><g fill="#000000" fill-opacity="1"><g transform="translate(270.52113, 234.141021)"><g><path d="M 29.125 -42.21875 C 32.851562 -42.21875 35.671875 -41.207031 37.578125 -39.1875 C 38.585938 -38.113281 39.304688 -36.78125 39.734375 -35.1875 C 40.160156 -33.59375 40.375 -31.441406 40.375 -28.734375 L 40.375 -7.421875 C 40.375 -5.242188 40.828125 -3.738281 41.734375 -2.90625 C 42.640625 -2.082031 44.207031 -1.671875 46.4375 -1.671875 L 46.4375 0 C 41.539062 -0.207031 38.347656 -0.3125 36.859375 -0.3125 C 35.367188 -0.3125 32.390625 -0.207031 27.921875 0 L 27.921875 -1.671875 C 29.890625 -1.671875 31.257812 -2.082031 32.03125 -2.90625 C 32.8125 -3.738281 33.203125 -5.242188 33.203125 -7.421875 L 33.203125 -30.484375 C 33.203125 -33.460938 32.773438 -35.734375 31.921875 -37.296875 C 31.066406 -38.867188 29.335938 -39.65625 26.734375 -39.65625 C 24.546875 -39.65625 22.601562 -39.015625 20.90625 -37.734375 C 19.207031 -36.460938 17.890625 -34.722656 16.953125 -32.515625 C 16.023438 -30.304688 15.5625 -27.847656 15.5625 -25.140625 L 15.5625 -7.421875 C 15.5625 -5.242188 15.945312 -3.738281 16.71875 -2.90625 C 17.488281 -2.082031 18.859375 -1.671875 20.828125 -1.671875 L 20.828125 0 C 16.359375 -0.207031 13.378906 -0.3125 11.890625 -0.3125 C 10.398438 -0.3125 7.207031 -0.207031 2.3125 0 L 2.3125 -1.671875 C 4.550781 -1.671875 6.117188 -2.082031 7.015625 -2.90625 C 7.921875 -3.738281 8.375 -5.242188 8.375 -7.421875 L 8.375 -32.390625 C 8.375 -34.835938 7.921875 -36.617188 7.015625 -37.734375 C 6.117188 -38.859375 4.550781 -39.421875 2.3125 -39.421875 L 2.3125 -41.09375 C 4.019531 -40.9375 5.671875 -40.859375 7.265625 -40.859375 C 10.609375 -40.859375 13.375 -41.226562 15.5625 -41.96875 L 15.5625 -32.5625 C 16.894531 -35.96875 18.742188 -38.425781 21.109375 -39.9375 C 23.472656 -41.457031 26.144531 -42.21875 29.125 -42.21875 Z M 29.125 -42.21875 "/></g></g></g><g fill="#000000" fill-opacity="1"><g transform="translate(102.914215, 258.935373)"><g><path d="M 6.421875 0 L 4.90625 0 L 4.734375 -0.921875 L 4.546875 -1.578125 L 3.15625 -1.609375 L 1.9375 -1.578125 L 1.75 -1 L 1.5625 0 L 0.09375 0 L 2.484375 -7.078125 L 4.25 -7.078125 Z M 4.21875 -2.734375 L 3.390625 -5.6875 L 3.28125 -5.6875 L 2.328125 -2.734375 L 3.265625 -2.71875 Z M 4.21875 -2.734375 "/></g></g></g><g fill="#000000" fill-opacity="1"><g transform="translate(110.939548, 258.935373)"><g/></g></g><g fill="#000000" fill-opacity="1"><g transform="translate(114.029376, 258.935373)"><g><path d="M 7.546875 0 L 5.984375 0 L 4.921875 -3.390625 L 4.828125 -3.390625 L 3.765625 0 L 2.1875 0 L 0.203125 -7.078125 L 1.671875 -7.078125 L 1.78125 -6.21875 L 3.03125 -1.546875 L 3.140625 -1.546875 L 4.328125 -5.359375 L 3.828125 -7.078125 L 5.34375 -7.078125 L 5.515625 -6.0625 L 6.78125 -1.546875 L 6.890625 -1.546875 L 8.3125 -6.109375 L 8.484375 -7.078125 L 9.875 -7.078125 Z M 7.546875 0 "/></g></g></g><g fill="#000000" fill-opacity="1"><g transform="translate(125.385363, 258.935373)"><g><path d="M 2.28125 -2.25 L 2.359375 0 L 0.859375 0 L 0.9375 -2.109375 L 0.859375 -7.078125 L 2.375 -7.078125 Z M 2.28125 -2.25 "/></g></g></g><g fill="#000000" fill-opacity="1"><g transform="translate(130.058068, 258.935373)"><g><path d="M 6.703125 -2.1875 L 6.765625 0 L 5.15625 0 L 2.265625 -4.796875 L 2.171875 -4.796875 L 2.171875 -2.4375 L 2.21875 0 L 0.859375 0 L 0.9375 -2.09375 L 0.875 -7.078125 L 2.46875 -7.078125 L 5.359375 -2.28125 L 5.453125 -2.28125 L 5.421875 -7.015625 L 6.796875 -7.109375 Z M 6.703125 -2.1875 "/></g></g></g><g fill="#000000" fill-opacity="1"><g transform="translate(139.127662, 258.935373)"><g><path d="M 3.703125 -7.125 C 4.734375 -7.125 5.519531 -6.835938 6.0625 -6.265625 C 6.613281 -5.691406 6.890625 -4.875 6.890625 -3.8125 C 6.890625 -2.550781 6.582031 -1.585938 5.96875 -0.921875 C 5.351562 -0.253906 4.472656 0.078125 3.328125 0.078125 C 2.984375 0.078125 2.570312 0.0664062 2.09375 0.046875 C 1.613281 0.0351562 1.203125 0.0195312 0.859375 0 L 0.9375 -2.109375 L 0.859375 -7.078125 Z M 3.59375 -1.078125 C 4.757812 -1.078125 5.34375 -1.875 5.34375 -3.46875 C 5.34375 -4.332031 5.203125 -4.957031 4.921875 -5.34375 C 4.640625 -5.738281 4.195312 -5.9375 3.59375 -5.9375 C 3.207031 -5.9375 2.796875 -5.921875 2.359375 -5.890625 L 2.28125 -2.25 L 2.328125 -1.15625 C 2.835938 -1.101562 3.257812 -1.078125 3.59375 -1.078125 Z M 3.59375 -1.078125 "/></g></g></g><g fill="#000000" fill-opacity="1"><g transform="translate(147.757574, 258.935373)"><g/></g></g><g fill="#000000" fill-opacity="1"><g transform="translate(150.847401, 258.935373)"><g><path d="M 5.3125 -1.234375 L 5.40625 -1.109375 L 5.296875 0 L 0.859375 0 L 0.9375 -2.109375 L 0.859375 -7.078125 L 5.34375 -7.078125 L 5.4375 -6.96875 L 5.328125 -5.859375 L 3.625 -5.90625 L 2.359375 -5.890625 L 2.328125 -4.1875 L 3.546875 -4.171875 L 4.703125 -4.203125 L 4.78125 -4.09375 L 4.6875 -2.984375 L 3.4375 -3.015625 L 2.296875 -3 L 2.28125 -2.25 L 2.328125 -1.171875 L 3.5625 -1.171875 Z M 5.3125 -1.234375 "/></g></g></g><g fill="#000000" fill-opacity="1"><g transform="translate(157.872442, 258.935373)"><g><path d="M 6.703125 -2.1875 L 6.765625 0 L 5.15625 0 L 2.265625 -4.796875 L 2.171875 -4.796875 L 2.171875 -2.4375 L 2.21875 0 L 0.859375 0 L 0.9375 -2.09375 L 0.875 -7.078125 L 2.46875 -7.078125 L 5.359375 -2.28125 L 5.453125 -2.28125 L 5.421875 -7.015625 L 6.796875 -7.109375 Z M 6.703125 -2.1875 "/></g></g></g><g fill="#000000" fill-opacity="1"><g transform="translate(166.942039, 258.935373)"><g><path d="M 5.3125 -1.234375 L 5.40625 -1.109375 L 5.296875 0 L 0.859375 0 L 0.9375 -2.109375 L 0.859375 -7.078125 L 5.34375 -7.078125 L 5.4375 -6.96875 L 5.328125 -5.859375 L 3.625 -5.90625 L 2.359375 -5.890625 L 2.328125 -4.1875 L 3.546875 -4.171875 L 4.703125 -4.203125 L 4.78125 -4.09375 L 4.6875 -2.984375 L 3.4375 -3.015625 L 2.296875 -3 L 2.28125 -2.25 L 2.328125 -1.171875 L 3.5625 -1.171875 Z M 5.3125 -1.234375 "/></g></g></g><g fill="#000000" fill-opacity="1"><g transform="translate(173.96708, 258.935373)"><g><path d="M 4.578125 -2.8125 C 5.148438 -1.90625 5.71875 -1.085938 6.28125 -0.359375 L 6.265625 -0.1875 C 5.785156 -0.0195312 5.296875 0.078125 4.796875 0.109375 L 4.640625 -0.015625 C 4.109375 -0.921875 3.679688 -1.710938 3.359375 -2.390625 L 2.28125 -2.390625 L 2.28125 -2.25 L 2.359375 0 L 0.859375 0 L 0.9375 -2.109375 L 0.859375 -7.078125 L 3.578125 -7.09375 C 4.316406 -7.09375 4.882812 -6.910156 5.28125 -6.546875 C 5.6875 -6.179688 5.890625 -5.664062 5.890625 -5 C 5.890625 -4.539062 5.773438 -4.117188 5.546875 -3.734375 C 5.316406 -3.359375 4.992188 -3.050781 4.578125 -2.8125 Z M 2.3125 -3.546875 L 3.40625 -3.5 C 4.019531 -3.707031 4.328125 -4.15625 4.328125 -4.84375 C 4.328125 -5.21875 4.226562 -5.5 4.03125 -5.6875 C 3.832031 -5.875 3.523438 -5.976562 3.109375 -6 L 2.359375 -5.953125 Z M 2.3125 -3.546875 "/></g></g></g><g fill="#000000" fill-opacity="1"><g transform="translate(181.882494, 258.935373)"><g><path d="M 4 -7.171875 C 4.769531 -7.171875 5.460938 -7.03125 6.078125 -6.75 L 5.765625 -5.40625 L 5.625 -5.375 C 5.257812 -5.582031 4.9375 -5.734375 4.65625 -5.828125 C 4.375 -5.921875 4.070312 -5.96875 3.75 -5.96875 C 3.09375 -5.96875 2.613281 -5.769531 2.3125 -5.375 C 2.019531 -4.988281 1.875 -4.351562 1.875 -3.46875 C 1.875 -2.875 1.9375 -2.40625 2.0625 -2.0625 C 2.1875 -1.71875 2.382812 -1.46875 2.65625 -1.3125 C 2.925781 -1.15625 3.285156 -1.078125 3.734375 -1.078125 C 3.890625 -1.078125 4.035156 -1.085938 4.171875 -1.109375 C 4.304688 -1.128906 4.472656 -1.171875 4.671875 -1.234375 L 4.703125 -1.84375 L 4.671875 -2.953125 L 6.046875 -3.0625 L 6.015625 -2.0625 L 6.046875 -0.34375 C 5.171875 -0.0507812 4.363281 0.09375 3.625 0.09375 C 2.519531 0.09375 1.691406 -0.203125 1.140625 -0.796875 C 0.585938 -1.398438 0.3125 -2.265625 0.3125 -3.390625 C 0.3125 -4.609375 0.628906 -5.539062 1.265625 -6.1875 C 1.910156 -6.84375 2.820312 -7.171875 4 -7.171875 Z M 4 -7.171875 "/></g></g></g><g fill="#000000" fill-opacity="1"><g transform="translate(189.885845, 258.935373)"><g><path d="M 3.65625 -1.96875 L 3.734375 0 L 2.25 0 L 2.3125 -1.96875 L 2.296875 -2.390625 L 0.046875 -7.078125 L 1.625 -7.078125 L 1.78125 -6.59375 L 2.984375 -3.890625 L 3.078125 -3.890625 L 4.421875 -6.546875 L 4.625 -7.078125 L 6.15625 -7.078125 L 3.6875 -2.4375 Z M 3.65625 -1.96875 "/></g></g></g><g fill="#000000" fill-opacity="1"><g transform="translate(197.449514, 258.935373)"><g/></g></g><g fill="#000000" fill-opacity="1"><g transform="translate(200.539338, 258.935373)"><g><path d="M 2.28125 -2.25 L 2.359375 0 L 0.859375 0 L 0.9375 -2.109375 L 0.859375 -7.078125 L 2.375 -7.078125 Z M 2.28125 -2.25 "/></g></g></g><g fill="#000000" fill-opacity="1"><g transform="translate(205.212041, 258.935373)"><g><path d="M 6.703125 -2.1875 L 6.765625 0 L 5.15625 0 L 2.265625 -4.796875 L 2.171875 -4.796875 L 2.171875 -2.4375 L 2.21875 0 L 0.859375 0 L 0.9375 -2.09375 L 0.875 -7.078125 L 2.46875 -7.078125 L 5.359375 -2.28125 L 5.453125 -2.28125 L 5.421875 -7.015625 L 6.796875 -7.109375 Z M 6.703125 -2.1875 "/></g></g></g><g fill="#000000" fill-opacity="1"><g transform="translate(214.281632, 258.935373)"><g><path d="M 2.359375 -5.890625 L 2.328125 -3.984375 L 3.3125 -3.96875 L 4.515625 -4 L 4.609375 -3.890625 L 4.5 -2.78125 L 3.1875 -2.8125 L 2.296875 -2.8125 L 2.28125 -2.25 L 2.359375 0 L 0.859375 0 L 0.9375 -2.109375 L 0.859375 -7.078125 L 5.078125 -7.078125 L 5.15625 -6.96875 L 5.046875 -5.84375 L 3.359375 -5.90625 Z M 2.359375 -5.890625 "/></g></g></g><g fill="#000000" fill-opacity="1"><g transform="translate(220.724083, 258.935373)"><g><path d="M 4.734375 -1.109375 L 4.640625 0 L 0.8125 0 L 0.890625 -2.109375 L 0.8125 -7.078125 L 2.328125 -7.078125 L 2.25 -2.25 L 2.28125 -1.234375 L 4.65625 -1.234375 Z M 4.734375 -1.109375 "/></g></g></g><g fill="#000000" fill-opacity="1"><g transform="translate(226.913711, 258.935373)"><g><path d="M 6.296875 -3.484375 L 6.296875 -2.546875 C 6.296875 -1.703125 6.046875 -1.050781 5.546875 -0.59375 C 5.054688 -0.132812 4.34375 0.09375 3.40625 0.09375 C 2.507812 0.09375 1.828125 -0.128906 1.359375 -0.578125 C 0.890625 -1.023438 0.664062 -1.664062 0.6875 -2.5 L 0.703125 -3.515625 L 0.671875 -7.078125 L 2.171875 -7.078125 L 2.09375 -2.6875 C 2.082031 -2.15625 2.191406 -1.757812 2.421875 -1.5 C 2.660156 -1.25 3.019531 -1.125 3.5 -1.125 C 4.445312 -1.125 4.921875 -1.625 4.921875 -2.625 L 4.84375 -7.078125 L 6.359375 -7.078125 Z M 6.296875 -3.484375 "/></g></g></g><g fill="#000000" fill-opacity="1"><g transform="translate(235.356749, 258.935373)"><g><path d="M 5.3125 -1.234375 L 5.40625 -1.109375 L 5.296875 0 L 0.859375 0 L 0.9375 -2.109375 L 0.859375 -7.078125 L 5.34375 -7.078125 L 5.4375 -6.96875 L 5.328125 -5.859375 L 3.625 -5.90625 L 2.359375 -5.890625 L 2.328125 -4.1875 L 3.546875 -4.171875 L 4.703125 -4.203125 L 4.78125 -4.09375 L 4.6875 -2.984375 L 3.4375 -3.015625 L 2.296875 -3 L 2.28125 -2.25 L 2.328125 -1.171875 L 3.5625 -1.171875 Z M 5.3125 -1.234375 "/></g></g></g><g fill="#000000" fill-opacity="1"><g transform="translate(242.381785, 258.935373)"><g><path d="M 6.703125 -2.1875 L 6.765625 0 L 5.15625 0 L 2.265625 -4.796875 L 2.171875 -4.796875 L 2.171875 -2.4375 L 2.21875 0 L 0.859375 0 L 0.9375 -2.09375 L 0.875 -7.078125 L 2.46875 -7.078125 L 5.359375 -2.28125 L 5.453125 -2.28125 L 5.421875 -7.015625 L 6.796875 -7.109375 Z M 6.703125 -2.1875 "/></g></g></g><g fill="#000000" fill-opacity="1"><g transform="translate(251.451376, 258.935373)"><g><path d="M 3.703125 -7.171875 C 4.390625 -7.171875 5.007812 -7.03125 5.5625 -6.75 L 5.296875 -5.5 L 5.171875 -5.4375 C 4.953125 -5.59375 4.707031 -5.710938 4.4375 -5.796875 C 4.175781 -5.890625 3.90625 -5.9375 3.625 -5.9375 C 2.457031 -5.9375 1.875 -5.171875 1.875 -3.640625 C 1.875 -2.804688 2.023438 -2.179688 2.328125 -1.765625 C 2.640625 -1.359375 3.085938 -1.15625 3.671875 -1.15625 C 3.941406 -1.15625 4.222656 -1.195312 4.515625 -1.28125 C 4.804688 -1.363281 5.066406 -1.476562 5.296875 -1.625 L 5.4375 -1.546875 L 5.3125 -0.28125 C 4.757812 -0.03125 4.171875 0.09375 3.546875 0.09375 C 2.492188 0.09375 1.691406 -0.210938 1.140625 -0.828125 C 0.585938 -1.441406 0.3125 -2.320312 0.3125 -3.46875 C 0.3125 -4.644531 0.601562 -5.554688 1.1875 -6.203125 C 1.78125 -6.847656 2.617188 -7.171875 3.703125 -7.171875 Z M 3.703125 -7.171875 "/></g></g></g><g fill="#000000" fill-opacity="1"><g transform="translate(258.564359, 258.935373)"><g><path d="M 5.3125 -1.234375 L 5.40625 -1.109375 L 5.296875 0 L 0.859375 0 L 0.9375 -2.109375 L 0.859375 -7.078125 L 5.34375 -7.078125 L 5.4375 -6.96875 L 5.328125 -5.859375 L 3.625 -5.90625 L 2.359375 -5.890625 L 2.328125 -4.1875 L 3.546875 -4.171875 L 4.703125 -4.203125 L 4.78125 -4.09375 L 4.6875 -2.984375 L 3.4375 -3.015625 L 2.296875 -3 L 2.28125 -2.25 L 2.328125 -1.171875 L 3.5625 -1.171875 Z M 5.3125 -1.234375 "/></g></g></g><g fill="#000000" fill-opacity="1"><g transform="translate(265.589394, 258.935373)"><g><path d="M 4.578125 -2.8125 C 5.148438 -1.90625 5.71875 -1.085938 6.28125 -0.359375 L 6.265625 -0.1875 C 5.785156 -0.0195312 5.296875 0.078125 4.796875 0.109375 L 4.640625 -0.015625 C 4.109375 -0.921875 3.679688 -1.710938 3.359375 -2.390625 L 2.28125 -2.390625 L 2.28125 -2.25 L 2.359375 0 L 0.859375 0 L 0.9375 -2.109375 L 0.859375 -7.078125 L 3.578125 -7.09375 C 4.316406 -7.09375 4.882812 -6.910156 5.28125 -6.546875 C 5.6875 -6.179688 5.890625 -5.664062 5.890625 -5 C 5.890625 -4.539062 5.773438 -4.117188 5.546875 -3.734375 C 5.316406 -3.359375 4.992188 -3.050781 4.578125 -2.8125 Z M 2.3125 -3.546875 L 3.40625 -3.5 C 4.019531 -3.707031 4.328125 -4.15625 4.328125 -4.84375 C 4.328125 -5.21875 4.226562 -5.5 4.03125 -5.6875 C 3.832031 -5.875 3.523438 -5.976562 3.109375 -6 L 2.359375 -5.953125 Z M 2.3125 -3.546875 "/></g></g></g></svg>